<mxfile host="app.diagrams.net" modified="2024-04-25T23:38:29.886Z" agent="Mozilla/5.0 (Macintosh; Intel Mac OS X 10_15_7) AppleWebKit/537.36 (KHTML, like Gecko) Chrome/124.0.0.0 Safari/537.36" version="23.1.5" etag="yvxqzl6cKMuPn1LJIgSc" type="github">
  <diagram name="Page-1" id="AQYzpU_p4KMbYam6YToU">
    <mxGraphModel>
      <root>
        <mxCell id="0" />
        <mxCell id="1" parent="0" />
      </root>
    </mxGraphModel>
  </diagram>
</mxfile>
